<?xml version="1.0" standalone="no"?>
<!DOCTYPE svg PUBLIC "-//W3C//DTD SVG 20010904//EN"
 "http://www.w3.org/TR/2001/REC-SVG-20010904/DTD/svg10.dtd">
<svg version="1.0" xmlns="http://www.w3.org/2000/svg"
 width="500.000000pt" height="500.000000pt" viewBox="0 0 500.000000 500.000000"
 preserveAspectRatio="xMidYMid meet">
<metadata>
Created by potrace 1.14, written by Peter Selinger 2001-2017
</metadata>
<g transform="translate(0.000000,500.000000) scale(0.100000,-0.100000)"
fill="#000000" stroke="none">
<path d="M1285 4246 c-94 -30 -128 -49 -208 -114 -132 -107 -217 -276 -217
-431 0 -35 -9 -65 -31 -107 -76 -142 -90 -172 -104 -230 -14 -54 -15 -188 -13
-1065 l3 -1004 34 -80 c45 -104 76 -149 149 -217 71 -65 130 -100 232 -136
l75 -27 1280 0 c1222 0 1283 1 1350 19 118 32 192 74 276 156 61 60 85 93 118
160 22 47 45 110 51 139 6 34 10 407 10 1015 0 783 -3 973 -14 1026 -14 64
-48 144 -106 249 -21 37 -30 67 -30 100 0 25 -7 73 -15 106 -48 206 -190 362
-398 437 l-62 23 -1155 2 -1155 2 -70 -23z m2355 -147 c85 -21 148 -57 218
-126 54 -55 72 -80 89 -130 23 -66 17 -82 -14 -37 -60 87 -129 144 -188 158
-48 10 -79 16 -92 18 -7 1 -13 5 -13 8 0 13 -85 14 -235 5 -55 -4 -107 -6
-115 -6 -72 4 -504 0 -511 -4 -14 -9 -880 -4 -924 5 -5 1 -12 2 -15 1 -3 -1
-26 -3 -52 -5 -34 -3 -46 0 -41 8 4 6 0 5 -9 -2 -13 -10 -26 -11 -52 -3 -20 5
-36 6 -36 3 0 -4 -21 -6 -47 -5 -50 3 -181 2 -220 0 -13 -1 -23 -4 -23 -7 0
-3 -16 -6 -35 -7 -34 -1 -125 -42 -152 -68 -7 -7 -16 -15 -20 -17 -5 -1 -26
-24 -47 -50 -35 -44 -66 -62 -66 -38 0 5 12 34 26 64 28 59 114 152 177 192
83 54 55 53 1247 53 751 0 1119 -3 1150 -10z m-146 -439 c137 0 272 -6 300
-12 109 -22 257 -138 253 -197 -2 -34 -21 -35 -56 -2 -14 12 -43 30 -64 38
-28 11 -35 18 -25 24 10 7 10 9 -2 10 -14 1 -66 7 -97 11 -7 1 -13 6 -13 12 0
6 -4 5 -9 -3 -6 -9 -11 -10 -15 -2 -4 6 -12 11 -17 11 -6 0 -8 -4 -5 -9 8 -12
-45 -1 -67 14 -18 12 -57 9 -57 -4 0 -3 -11 -6 -24 -6 -13 0 -22 4 -19 8 3 5
-3 7 -13 5 -11 -2 -18 -11 -16 -19 1 -9 -3 -8 -12 5 -14 17 -16 17 -31 2 -9
-9 -22 -13 -28 -9 -13 8 -183 6 -197 -2 -5 -3 -11 -1 -15 5 -3 5 -11 10 -16
10 -6 0 -8 -3 -6 -7 8 -12 -96 -8 -119 5 -16 8 -24 8 -33 -1 -9 -9 -14 -9 -21
3 -7 12 -12 12 -22 2 -14 -14 -32 -16 -24 -3 3 5 -5 9 -19 9 -14 0 -22 -4 -19
-9 8 -13 -10 -11 -24 3 -7 7 -12 8 -12 2 0 -13 -38 -14 -594 -17 -382 -2 -484
0 -504 10 -27 15 -57 10 -47 -7 3 -6 -1 -7 -9 -4 -9 3 -17 14 -17 23 -1 13 -2
13 -6 -2 -4 -14 -12 -17 -43 -13 -22 2 -44 8 -51 12 -8 5 -10 3 -4 -7 8 -12 6
-12 -8 0 -9 7 -17 9 -17 5 0 -11 -93 -10 -109 1 -6 3 -11 0 -12 -7 0 -9 -2
-10 -5 -1 -3 7 -12 9 -20 6 -8 -3 -14 -1 -14 5 0 6 -13 7 -37 2 -20 -5 -41 -6
-45 -4 -5 3 -16 0 -25 -8 -9 -7 -14 -8 -10 -1 5 7 -4 11 -28 10 -23 -1 -35 -6
-35 -15 0 -12 -3 -12 -15 -2 -8 7 -21 10 -30 6 -8 -3 -14 0 -12 6 1 7 -6 14
-15 16 -12 2 -16 -1 -13 -11 8 -20 -13 -34 -77 -51 -31 -8 -70 -22 -87 -30
-17 -9 -31 -13 -31 -9 0 4 -18 -13 -39 -37 -32 -36 -41 -42 -53 -32 -8 6 -18
8 -22 4 -5 -4 6 18 23 48 54 94 176 189 223 174 13 -4 18 -2 14 4 -10 17 58
26 174 24 58 -1 114 -2 125 -2 226 3 635 11 650 13 18 3 229 3 1369 -3z m590
-242 c15 -24 44 -131 43 -160 0 -14 -3 -15 -14 -7 -7 6 -13 18 -13 25 0 26
-45 124 -57 124 -7 0 -13 5 -13 10 0 6 6 9 13 8 6 -2 11 3 10 10 -5 20 15 14
31 -10z m-3178 -75 c-6 -48 -19 -72 -30 -55 -6 10 22 102 31 102 3 0 3 -21 -1
-47z m2392 28 c24 -5 50 -15 58 -23 8 -8 24 -59 35 -114 23 -117 34 -144 84
-202 49 -56 95 -78 210 -102 112 -23 133 -32 145 -66 11 -28 14 -991 4 -1042
-9 -43 -59 -71 -161 -87 -106 -17 -173 -53 -213 -114 -33 -49 -64 -139 -75
-217 -10 -65 -18 -78 -59 -98 -31 -14 -115 -16 -834 -16 l-800 0 -31 25 c-33
28 -43 55 -61 163 -9 56 -21 86 -51 132 -48 71 -108 104 -235 127 -107 20
-139 39 -147 89 -4 22 -7 256 -7 522 0 561 -3 542 81 566 29 9 62 16 74 16 42
0 131 33 172 63 58 44 98 122 117 229 16 92 36 134 70 148 27 11 1568 12 1624
1z"/>
<path d="M2418 2769 c-171 -25 -305 -155 -353 -344 -21 -84 -19 -142 10 -234
40 -127 118 -209 254 -271 49 -22 68 -25 180 -25 115 0 131 2 181 26 68 32
166 127 202 195 99 184 61 410 -91 547 -54 49 -144 93 -216 106 -65 12 -85 12
-167 0z"/>
<path d="M1531 2612 c-66 -36 -76 -73 -76 -272 0 -190 8 -230 51 -271 22 -21
35 -24 99 -24 59 0 77 4 95 20 50 46 55 68 55 260 -1 159 -3 185 -20 219 -26
53 -60 75 -120 82 -38 4 -58 1 -84 -14z"/>
<path d="M3346 2620 c-38 -12 -66 -38 -82 -77 -20 -47 -20 -380 0 -428 20 -47
69 -75 129 -75 124 0 158 60 156 278 -1 182 -13 236 -60 274 -40 32 -96 43
-143 28z"/>
</g>
</svg>
